{"title":"Reeker.DIVX.2005.La.Vela.avi","uid":4996323,"size":1200318823,"categoryP":"video","categoryS":"movies","magnet":"?xt=urn:btih:f97a434e9b7abb0e76fa3101e2b5636b81077be3&amp;dn=Reeker.DIVX.2005.La.Vela.avi&amp;tr=udp%3A%2F%2Ftracker.openbittorrent.com%3A80&amp;tr=udp%3A%2F%2Fopen.demonii.com%3A1337&amp;tr=udp%3A%2F%2Ftracker.coppersurfer.tk%3A6969&amp;tr=udp%3A%2F%2Fexodus.desync.com%3A6969","seeders":0,"leechers":0,"uploader":"headdock","files":4,"time":1247305713,"description":"Plot:\n\n\nStrangers trapped at an eerie travel oasis in the desert must unravel the mystery behind their visions of dying people while they are preyed upon by a decaying creature.\n\n\nGeneral\n\nImdb                             : http://www.imdb.com/title/tt0393635/\nLanguage                         : English\nSubtitles                        : N/A\nComplete name                    : Reeker.2005.La.Vela.avi\nFormat                           : AVI\nFormat/Info                      : Audio Video Interleave\nFormat profile                   : OpenDML\nFile size                        : 1.12 GiB\nDuration                         : 3h 45mn\nOverall bit rate                 : 710 Kbps\nWriting application              : Lavf51.12.1\n\nVideo\nFormat                           : MPEG-4 Visual\nFormat profile                   : Simple@L1\nFormat settings, BVOP            : No\nFormat settings, QPel            : No\nFormat settings, GMC             : No warppoints\nFormat settings, Matrix          : Default\nCodec ID                         : DX50\nCodec ID/Hint                    : DivX 5\nDuration                         : 3h 45mn\nBit rate                         : 608 Kbps\nWidth                            : 720 pixels\nHeight                           : 576 pixels\nDisplay aspect ratio             : 5/4\nFrame rate                       : 25.000 fps\nStandard                         : PAL\nResolution                       : 24 bits\nColorimetry                      : 4:2:0\nScan type                        : Progressive\nBits/(Pixel*Frame)               : 0.059\nStream size                      : 980 MiB (86%)\nWriting library                  : Lavc51.40.4\n\nAudio\nFormat                           : MPEG Audio\nFormat version                   : Version 1\nFormat profile                   : Layer 3\nCodec ID                         : 55\nCodec ID/Hint                    : MP3\nDuration                         : 1h 24mn\nBit rate mode                    : Constant\nBit rate                         : 256 Kbps\nChannel(s)                       : 2 channels\nSampling rate                    : 48.0 KHz\nResolution                       : 16 bits\nStream size                      : 155 MiB (14%)\nAlignment                        : Aligned on interleaves\nInterleave, duration             : 24 ms (0.60 video frame)\nInterleave, preload duration     : 24 ms\nWriting library                  : LAME3.97\n\n","torrent":{"xt":"urn:btih:f97a434e9b7abb0e76fa3101e2b5636b81077be3","amp;dn":"Reeker.DIVX.2005.La.Vela.avi","amp;tr":["udp%3A%2F%2Ftracker.openbittorrent.com%3A80","udp%3A%2F%2Fopen.demonii.com%3A1337","udp%3A%2F%2Ftracker.coppersurfer.tk%3A6969","udp%3A%2F%2Fexodus.desync.com%3A6969"],"infoHash":"f97a434e9b7abb0e76fa3101e2b5636b81077be3","infoHashBuffer":{"type":"Buffer","data":[249,122,67,78,155,122,187,14,118,250,49,1,226,181,99,107,129,7,123,227]},"announce":[],"urlList":[]}}